<?xml version="1.0" encoding="UTF-8"?>
<svg width="39px" height="58px" viewBox="0 0 39 58" version="1.1" xmlns="http://www.w3.org/2000/svg" xmlns:xlink="http://www.w3.org/1999/xlink">
    <g stroke="none" stroke-width="1" fill="none" fill-rule="evenodd">
        <g transform="translate(-155.000000, -589.000000)" fill="#FFFFFF">
            <g transform="translate(155.000000, 589.000000)">
                <g>
                    <path d="M10.3672232,57.445627 L2,57.445627 L2,57.445627 C0.8954305,57.445627 -4.71136257e-13,56.5501965 -4.70290473e-13,55.445627 L-1.77635684e-14,2.19287109 L2.22044605e-15,2.19287109 C1.09146684e-14,1.08830159 0.8954305,0.192871094 2,0.192871094 L10.1864647,0.192871094 L10.1864647,0.192871094 C11.288384,0.192871094 12.1827129,1.08416949 12.1864532,2.18608243 L12.3672117,55.4388383 L12.3672117,55.4388383 C12.370961,56.5434014 11.478575,57.4418662 10.3740119,57.4456155 C10.371749,57.4456231 10.3694861,57.445627 10.3672232,57.445627 Z" id="Triangle-Copy"></path>
                    <path d="M36.3672232,57.2527559 L28,57.2527559 L28,57.2527559 C26.8954305,57.2527559 26,56.3573254 26,55.2527559 L26,2 L26,2 C26,0.8954305 26.8954305,-7.37742392e-14 28,-7.59392549e-14 L36.1864647,-1.10134124e-13 L36.1864647,-1.08801856e-13 C37.288384,-1.11940378e-13 38.1827129,0.891298398 38.1864532,1.99321134 L38.3672117,55.2459672 L38.3672117,55.2459672 C38.370961,56.3505304 37.478575,57.2489951 36.3740119,57.2527444 C36.371749,57.252752 36.3694861,57.2527559 36.3672232,57.2527559 Z" id="Triangle-Copy-2"></path>
                </g>
            </g>
        </g>
    </g>
</svg>