<svg xmlns="http://www.w3.org/2000/svg" width="54" height="54" viewBox="0 0 54 54">
  <path fill="#FFFFFF" d="M27 53.625c14.618 0 26.5-11.888 26.5-26.512 0-10.654-6.294-19.86-15.375-24.068-1.815-.842-3.077 1.882-1.262 2.723C44.91 9.498 50.5 17.64 50.5 27.113c0 13.003-10.504 23.512-23.5 23.512S3.5 40.115 3.5 27.113c0-12.663 9.97-22.96 22.488-23.49C28.053 3.6 27.92.473 25.86.627 11.766 1.224.5 12.87.5 27.113.5 41.737 12.382 53.625 27 53.625z"/>
  <path fill="#FFFFFF" d="M35.977 2.604c-.948.012-1.648.89-1.448 1.816l2 10c.37 1.996 3.37 1.395 2.94-.59l-2-10c-.133-.718-.764-1.236-1.494-1.226z"/>
  <path fill="#FFFFFF" d="M45.955 1.625a1.5 1.5 0 0 0-.103.008l-10 1a1.5 1.5 0 1 0 .296 2.984l10-1a1.5 1.5 0 0 0-.193-2.992z"/>
</svg>
