<?xml version="1.0" encoding="UTF-8"?>
<svg width="13px" height="11px" viewBox="0 0 13 11" version="1.1" xmlns="http://www.w3.org/2000/svg" xmlns:xlink="http://www.w3.org/1999/xlink">
    <!-- Generator: Sketch 46.2 (44496) - http://www.bohemiancoding.com/sketch -->
    <title>if_twitter-social-media_765208</title>
    <desc>Created with Sketch.</desc>
    <defs></defs>
    <g id="Page-1" stroke="none" stroke-width="1" fill="none" fill-rule="evenodd">
        <g id="Desktop" transform="translate(-914.000000, -1014.000000)" fill-rule="nonzero" fill="#FFFFFF">
            <g id="Group-10" transform="translate(835.000000, 1008.000000)">
                <g id="if_twitter-social-media_765208" transform="translate(79.000000, 6.000000)">
                    <path d="M10.94717,0.906798002 C10.46071,0.360818929 9.76755,0.012956575 9.00041997,0.000351491636 C7.52751999,-0.0238504391 6.33327497,1.20480568 6.33327497,2.74451554 C6.33327497,2.96303747 6.35686999,3.1761282 6.40236998,3.38068962 C4.18573999,3.23875394 2.220465,2.09928943 0.905059997,0.38168116 C0.67548,0.793258954 0.543919998,1.27430341 0.543919998,1.78960695 C0.543919998,2.76512041 1.01478,3.63088166 1.73043,4.14206303 C1.29324,4.12300927 0.881984998,3.99235807 0.522404999,3.77802262 C0.522145,3.78973787 0.522145,3.80145591 0.522145,3.81337953 C0.522145,5.1756878 1.441505,6.31855886 2.66162,6.58478939 C2.437825,6.64739149 2.2022,6.6801537 1.95897,6.67856152 C1.78711,6.6774365 1.619995,6.65862247 1.45717,6.62484118 C1.796535,7.74207226 2.78148,8.55732662 3.94861999,8.5842828 C3.03582499,9.33227937 1.885845,9.7777629 0.63622,9.77521818 C0.420939998,9.77477976 0.208650001,9.76104727 0,9.73462707 C1.180335,10.5341219 2.582255,10.9996096 4.08843498,10.9999997 C8.99417997,11.0012703 11.676925,6.78680572 11.676925,3.13127201 C11.676925,3.01133776 11.67426,2.8920451 11.66919,2.77332842 C12.190295,2.39001473 12.642435,1.90942458 13,1.36063422 C12.52173,1.57346475 12.007645,1.71481726 11.46821,1.77411033 C12.018825,1.43958061 12.44178,0.904177051 12.640875,0.262131811 C12.12549,0.570667771 11.554725,0.79192872 10.94717,0.906798002 Z" id="Shape"></path>
                </g>
            </g>
        </g>
    </g>
</svg>