<?xml version="1.0" encoding="UTF-8"?>
<svg width="15px" height="9px" viewBox="0 0 15 9" version="1.1" xmlns="http://www.w3.org/2000/svg" xmlns:xlink="http://www.w3.org/1999/xlink">
    <!-- Generator: Sketch 46.2 (44496) - http://www.bohemiancoding.com/sketch -->
    <title>if_038_018_vkontakte_vk_social_network_android_material_1646921</title>
    <desc>Created with Sketch.</desc>
    <defs></defs>
    <g id="Page-1" stroke="none" stroke-width="1" fill="none" fill-rule="evenodd">
        <g id="Desktop" transform="translate(-995.000000, -1015.000000)" fill-rule="nonzero" fill="#FFFFFF">
            <g id="Group-10" transform="translate(835.000000, 1008.000000)">
                <g id="if_038_018_vkontakte_vk_social_network_android_material_1646921" transform="translate(160.000000, 7.000000)">
                    <path d="M14.4114153,0.395396531 L11.977303,0.395396531 C11.7748784,0.395395145 11.5888458,0.513080179 11.4931259,0.701689125 C11.4931259,0.701689125 10.5223083,2.59230042 10.2104693,3.22909584 C9.37155545,4.94214723 8.82830238,4.40435951 8.82830238,3.60931762 L8.82830238,0.868000466 C8.82830238,0.390979826 8.46260725,0.00427819188 8.01149945,0.00427819188 L6.18137325,0.00427819188 C5.67462261,-0.035563657 5.18450095,0.204926854 4.88608182,0.639845494 C4.88608182,0.639845494 5.81539239,0.480957579 5.81539239,1.80504961 C5.81539239,2.13338563 5.83138565,3.0779286 5.8459586,3.87015444 C5.85158619,4.10927616 5.71557192,4.32672805 5.50527114,4.41482622 C5.29497035,4.5029244 5.05502772,4.44296652 4.90426472,4.26464422 C4.1551658,3.16293174 3.53466208,1.96956713 3.05623672,0.710481466 C2.97233412,0.518148295 2.79019905,0.395088334 2.58989482,0.395396531 C2.06201363,0.395396531 1.00567425,0.395396531 0.3783493,0.395396531 C0.254864977,0.394507967 0.138848589,0.457828137 0.0680013265,0.564780241 C-0.00284593569,0.671732345 -0.0194811302,0.808665022 0.0235015883,0.931080031 C0.695033629,2.8788963 3.58777964,9 6.88955959,9 L8.27927932,9 C8.58249758,8.99999568 8.82830238,8.74006769 8.82830238,8.41943176 L8.82830238,7.53207029 C8.82830401,7.30456216 8.95613927,7.09880465 9.15360516,7.00847852 C9.35107105,6.91815239 9.58041241,6.96052785 9.73721082,7.1163115 L11.4006062,8.76894293 C11.5499926,8.91736292 11.7472612,8.99999068 11.9522405,9 L14.1365635,9 C15.1900696,9 15.1900696,8.22696242 14.6156807,7.62878604 C14.2114477,7.20780972 12.7527691,5.58196207 12.7527691,5.58196207 C12.4946684,5.29921636 12.4700557,4.85970725 12.6947954,4.54672659 C13.1662859,3.89061775 13.9374762,2.81661461 14.2645318,2.35651864 C14.7115811,1.72764729 15.5206759,0.395396531 14.4114153,0.395396531 Z" id="Shape"></path>
                </g>
            </g>
        </g>
    </g>
</svg>